<?xml version="1.0" encoding="utf-8"?><!-- Uploaded to: SVG Repo, www.svgrepo.com, Generator: SVG Repo Mixer Tools -->
<svg width="800px" height="800px" viewBox="0 0 24 24" fill="none" xmlns="http://www.w3.org/2000/svg"><path d="M21 7v11.6c0 1.33-1.07 2.4-2.4 2.4H5.4C4.07 21 3 19.93 3 18.6V7" fill="#000000" fill-opacity=".16"/><path d="M21 7v11.6c0 1.33-1.07 2.4-2.4 2.4H5.4C4.07 21 3 19.93 3 18.6V7" stroke="#000000" stroke-width="1.5" stroke-miterlimit="10" stroke-linecap="round"/><path d="M21.4 3H2.6A1.6 1.6 0 0 0 1 4.6v.8A1.6 1.6 0 0 0 2.6 7h18.8A1.6 1.6 0 0 0 23 5.4v-.8A1.6 1.6 0 0 0 21.4 3Z" fill="#ffffff" stroke="#000000" stroke-width="1.5" stroke-miterlimit="10"/><path d="M8 11h8" stroke="#000000" stroke-width="1.5" stroke-miterlimit="10" stroke-linecap="round"/></svg>