<?xml version="1.0" encoding="utf-8"?><svg xmlns="http://www.w3.org/2000/svg" xmlns:xlink="http://www.w3.org/1999/xlink" width="200px" height="200px" viewBox="0 0 100 100" preserveAspectRatio="xMidYMid" style="margin-right:-2px;display:block;background-repeat-y:initial;background-repeat-x:initial;animation-play-state:paused" ><g transform="translate(50 50)" style="transform:matrix(1, 0, 0, 1, 50, 50);animation-play-state:paused" ><g transform="matrix(1,0,0,1,0,0)" style="transform:matrix(1, 0, 0, 1, 0, 0);animation-play-state:paused" ><path d="M30.508195620193604 -5.5 L38.508195620193604 -5.5 L38.508195620193604 5.5 L30.508195620193604 5.5 A31 31 0 0 1 25.46163930133064 17.683464708278613 L25.46163930133064 17.683464708278613 L31.11849355082302 23.340318957770993 L23.340318957770993 31.118493550823015 L17.683464708278613 25.461639301330635 A31 31 0 0 1 5.500000000000004 30.5081956201936 L5.500000000000004 30.5081956201936 L5.500000000000005 38.508195620193604 L-5.5 38.508195620193604 L-5.500000000000001 30.508195620193604 A31 31 0 0 1 -17.683464708278606 25.46163930133064 L-17.683464708278606 25.46163930133064 L-23.340318957770986 31.11849355082302 L-31.11849355082302 23.340318957770997 L-25.46163930133064 17.683464708278613 A31 31 0 0 1 -30.5081956201936 5.500000000000006 L-30.5081956201936 5.500000000000006 L-38.508195620193604 5.500000000000007 L-38.508195620193604 -5.499999999999998 L-30.508195620193604 -5.499999999999999 A31 31 0 0 1 -25.461639301330642 -17.683464708278606 L-25.461639301330642 -17.683464708278606 L-31.118493550823025 -23.340318957770986 L-23.340318957770997 -31.118493550823015 L-17.683464708278613 -25.461639301330635 A31 31 0 0 1 -5.500000000000008 -30.5081956201936 L-5.500000000000008 -30.5081956201936 L-5.50000000000001 -38.508195620193604 L5.499999999999995 -38.508195620193604 L5.4999999999999964 -30.508195620193604 A31 31 0 0 1 17.683464708278603 -25.461639301330642 L17.683464708278603 -25.461639301330642 L23.340318957770982 -31.118493550823025 L31.118493550823015 -23.340318957770997 L25.461639301330635 -17.683464708278617 A31 31 0 0 1 30.5081956201936 -5.500000000000011 M0 -20A20 20 0 1 0 0 20 A20 20 0 1 0 0 -20" fill="#e62532" style="animation-play-state:paused" ></path></g></g><!-- generated by https://loading.io/ --></svg>